<?xml version="1.0" encoding="UTF-8"?>
<!DOCTYPE svg PUBLIC "-//W3C//DTD SVG 1.1//EN" "http://www.w3.org/Graphics/SVG/1.1/DTD/svg11.dtd">
<svg xmlns="http://www.w3.org/2000/svg" version="1.1" width="837px" height="988px" style="shape-rendering:geometricPrecision; text-rendering:geometricPrecision; image-rendering:optimizeQuality; fill-rule:evenodd; clip-rule:evenodd" xmlns:xlink="http://www.w3.org/1999/xlink">
<g><path style="opacity:0.973" fill="#0d0e0e" d="M 417.5,-0.5 C 418.167,-0.5 418.833,-0.5 419.5,-0.5C 428.202,25.1065 437.202,50.6065 446.5,76C 474.168,76.9658 501.835,77.9658 529.5,79C 516.167,89.3333 502.833,99.6667 489.5,110C 533.129,102.458 575.129,89.4583 615.5,71C 631.534,63.5664 647.367,55.7331 663,47.5C 720.709,92.7149 778.542,137.715 836.5,182.5C 836.5,183.5 836.5,184.5 836.5,185.5C 793.574,191.26 767.407,215.26 758,257.5C 756.348,264.744 755.348,272.077 755,279.5C 754.969,392.513 754.302,505.513 753,618.5C 749.357,667.101 731.024,709.101 698,744.5C 677.958,764.219 656.458,782.052 633.5,798C 599.229,819.94 565.229,842.274 531.5,865C 489.535,893.964 454.702,929.797 427,972.5C 424.473,977.553 421.973,982.553 419.5,987.5C 418.833,987.5 418.167,987.5 417.5,987.5C 400.29,954.324 377.623,925.158 349.5,900C 335.198,887.852 320.531,876.186 305.5,865C 271.771,842.274 237.771,819.94 203.5,798C 180.542,782.052 159.042,764.219 139,744.5C 105.976,709.101 87.643,667.101 84,618.5C 82.6975,505.513 82.0309,392.513 82,279.5C 79.899,225.577 52.399,193.91 -0.5,184.5C -0.5,184.167 -0.5,183.833 -0.5,183.5C 57.7911,138.382 115.958,93.0482 174,47.5C 226.347,81.7437 283.514,103.91 345.5,114C 347.833,114.667 350.167,114.667 352.5,114C 337.5,102.333 322.5,90.6667 307.5,79C 335.165,77.9658 362.832,76.9658 390.5,76C 399.798,50.6065 408.798,25.1065 417.5,-0.5 Z"/></g>
<g><path style="opacity:1" fill="#fbf100" d="M 417.5,28.5 C 418.497,28.4701 419.164,28.9701 419.5,30C 425.898,48.7889 432.564,67.4556 439.5,86C 459.847,86.5219 480.181,87.3553 500.5,88.5C 484.058,100.707 468.058,113.374 452.5,126.5C 458.54,145.91 463.873,165.243 468.5,184.5C 452.083,172.741 435.416,161.407 418.5,150.5C 401.859,161.159 385.526,172.325 369.5,184C 368.668,184.688 368.002,184.521 367.5,183.5C 373.361,164.581 379.028,145.581 384.5,126.5C 368.942,113.374 352.942,100.707 336.5,88.5C 356.834,87.6748 377.167,86.8415 397.5,86C 404.863,67.0776 411.53,47.9109 417.5,28.5 Z"/></g>
<g><path style="opacity:1" fill="#f8ee00" d="M 174.5,63.5 C 235.5,101.445 301.833,123.945 373.5,131C 371.993,134.69 370.993,138.524 370.5,142.5C 320.73,138.641 273.063,126.474 227.5,106C 210.096,97.5874 192.929,88.754 176,79.5C 134.701,111.295 93.5346,143.295 52.5,175.5C 84.9117,196.942 103.078,227.276 107,266.5C 108.313,378.815 108.98,491.148 109,603.5C 110.419,659.165 131.919,705.332 173.5,742C 185.592,752.762 198.258,762.762 211.5,772C 239.825,791.165 268.492,809.831 297.5,828C 331.616,850.431 363.116,876.265 392,905.5C 401.082,916.022 409.916,926.689 418.5,937.5C 439.916,909.25 464.582,884.083 492.5,862C 507.887,850.279 523.554,838.946 539.5,828C 568.508,809.831 597.175,791.165 625.5,772C 650.164,754.674 672.331,734.507 692,711.5C 715.561,679.484 727.561,643.484 728,603.5C 728.02,491.148 728.687,378.815 730,266.5C 733.922,227.276 752.088,196.942 784.5,175.5C 743.119,142.784 701.453,110.451 659.5,78.5C 599.183,109.606 535.517,130.273 468.5,140.5C 467.353,140.182 466.519,139.516 466,138.5C 464.679,135.23 464.013,131.897 464,128.5C 533.355,118.048 599.022,96.3816 661,63.5C 710.442,101.27 759.608,139.437 808.5,178C 772.368,193.361 750.868,220.528 744,259.5C 743.136,265.143 742.469,270.81 742,276.5C 741.667,383.833 741.333,491.167 741,598.5C 741.25,643.749 727.916,684.416 701,720.5C 680.289,744.884 656.789,766.05 630.5,784C 603.103,802.394 575.436,820.394 547.5,838C 513.719,860.096 482.552,885.596 454,914.5C 441.179,929.144 429.346,944.477 418.5,960.5C 398.307,930.462 374.307,903.629 346.5,880C 328.034,865.268 309.034,851.268 289.5,838C 260.492,819.831 231.825,801.165 203.5,782C 173.084,761.585 147.251,736.418 126,706.5C 106.062,674.754 96.0616,640.087 96,602.5C 95.6667,493.833 95.3333,385.167 95,276.5C 93.847,247.015 83.347,221.515 63.5,200C 53.1287,190.81 41.462,183.643 28.5,178.5C 77.1855,140.143 125.852,101.81 174.5,63.5 Z"/></g>
<g><path style="opacity:1" fill="#fefefe" d="M 657.5,87.5 C 658.552,87.3505 659.552,87.5172 660.5,88C 697.5,117 734.5,146 771.5,175C 742.823,197.844 726.823,227.677 723.5,264.5C 680.165,264.667 636.832,264.5 593.5,264C 575.015,248.926 556.349,234.093 537.5,219.5C 519.877,233.121 502.544,247.121 485.5,261.5C 463.167,240.167 440.833,218.833 418.5,197.5C 396.167,218.833 373.833,240.167 351.5,261.5C 334.456,247.121 317.123,233.121 299.5,219.5C 280.651,234.093 261.985,248.926 243.5,264C 200.168,264.5 156.835,264.667 113.5,264.5C 110.177,227.677 94.177,197.844 65.5,175C 102.357,145.976 139.357,117.142 176.5,88.5C 235.691,122.897 299.357,143.897 367.5,151.5C 361.205,170.36 355.705,189.36 351,208.5C 373.362,192.639 395.862,176.972 418.5,161.5C 441.138,176.972 463.638,192.639 486,208.5C 481.308,189.745 475.975,171.079 470,152.5C 469.28,150.888 469.446,149.388 470.5,148C 536.189,137.936 598.523,117.769 657.5,87.5 Z"/></g>
<g><path style="opacity:1" fill="#f9f9f9" d="M 417.5,207.5 C 418.239,207.369 418.906,207.536 419.5,208C 441.333,229.167 463.167,250.333 485,271.5C 502.344,257.486 519.678,243.486 537,229.5C 555.421,243.299 573.587,257.466 591.5,272C 634.832,272.5 678.165,272.667 721.5,272.5C 721.5,276.833 721.5,281.167 721.5,285.5C 679.165,285.667 636.832,285.5 594.5,285C 575.618,269.943 556.618,255.11 537.5,240.5C 520.192,254.134 502.859,267.801 485.5,281.5C 463.167,260.167 440.833,238.833 418.5,217.5C 396.167,238.833 373.833,260.167 351.5,281.5C 333.898,268.068 316.731,254.068 300,239.5C 280.833,254.667 261.667,269.833 242.5,285C 200.168,285.5 157.835,285.667 115.5,285.5C 115.5,281.167 115.5,276.833 115.5,272.5C 158.501,272.667 201.501,272.5 244.5,272C 262.928,257.707 281.428,243.54 300,229.5C 317.322,243.486 334.656,257.486 352,271.5C 374.033,250.299 395.866,228.966 417.5,207.5 Z"/></g>
<g><path style="opacity:1" fill="#0092db" d="M 592.5,292.5 C 634.997,293.499 677.663,293.832 720.5,293.5C 720.5,395.167 720.5,496.833 720.5,598.5C 720.405,654.85 699.072,701.35 656.5,738C 649.167,744 641.833,750 634.5,756C 597.349,781.745 559.682,806.745 521.5,831C 498.921,847.132 477.254,864.465 456.5,883C 443.252,896.41 430.585,910.243 418.5,924.5C 387.459,887.828 352.126,855.994 312.5,829C 275.49,805.163 238.823,780.83 202.5,756C 178.918,738.419 158.752,717.586 142,693.5C 124.917,664.17 116.417,632.503 116.5,598.5C 116.5,496.833 116.5,395.167 116.5,293.5C 159.337,293.832 202.003,293.499 244.5,292.5C 263.082,278.596 281.416,264.263 299.5,249.5C 316.908,263.953 334.408,278.286 352,292.5C 374.015,270.985 396.182,249.651 418.5,228.5C 440.818,249.651 462.985,270.985 485,292.5C 502.592,278.286 520.092,263.953 537.5,249.5C 555.584,264.263 573.918,278.596 592.5,292.5 Z"/></g>
<g><path style="opacity:1" fill="#054c70" d="M 244.5,292.5 C 202.003,293.499 159.337,293.832 116.5,293.5C 116.5,395.167 116.5,496.833 116.5,598.5C 115.501,496.668 115.167,394.668 115.5,292.5C 158.5,292.5 201.5,292.5 244.5,292.5 Z"/></g>
<g><path style="opacity:1" fill="#054c70" d="M 592.5,292.5 C 635.5,292.5 678.5,292.5 721.5,292.5C 721.833,394.668 721.499,496.668 720.5,598.5C 720.5,496.833 720.5,395.167 720.5,293.5C 677.663,293.832 634.997,293.499 592.5,292.5 Z"/></g>
<g><path style="opacity:1" fill="#121719" d="M 522.5,740.5 C 523.434,741.568 523.768,742.901 523.5,744.5C 506.759,753.035 489.426,760.202 471.5,766C 467.93,772.905 462.93,778.571 456.5,783C 481.679,775.415 506.013,765.582 529.5,753.5C 531.001,752.557 532.335,752.891 533.5,754.5C 507.466,767.846 480.466,779.012 452.5,788C 468.813,793.031 485.479,795.031 502.5,794C 505.102,793.117 507.269,791.617 509,789.5C 508.309,799.568 506.809,809.568 504.5,819.5C 493.322,814.274 481.822,809.941 470,806.5C 475.06,825.863 467.893,838.696 448.5,845C 440.616,846.232 433.616,844.232 427.5,839C 423.578,835.585 420.244,831.751 417.5,827.5C 408.184,844.438 394.851,848.605 377.5,840C 367.891,833.281 363.891,824.114 365.5,812.5C 359.221,814.039 353.221,816.372 347.5,819.5C 346.808,818.975 346.308,818.308 346,817.5C 344.833,808.843 344.167,800.177 344,791.5C 356.962,792.199 369.795,790.866 382.5,787.5C 379.314,784.479 375.98,781.646 372.5,779C 359.216,774.517 346.216,769.351 333.5,763.5C 307.46,775.287 282.126,773.954 257.5,759.5C 256.625,756.339 254.792,753.339 252,750.5C 247.197,740.674 247.364,731.007 252.5,721.5C 243.531,713.938 239.865,704.271 241.5,692.5C 215.207,688.382 195.207,674.882 181.5,652C 183.855,650.135 184.022,647.969 182,645.5C 180.178,633.622 184.178,624.289 194,617.5C 194.167,616.833 194.333,616.167 194.5,615.5C 191.875,608.147 191.875,600.813 194.5,593.5C 176.716,581.622 165.05,565.289 159.5,544.5C 160.325,543.614 161.325,543.281 162.5,543.5C 161.75,529.645 167.916,520.645 181,516.5C 180.498,503.164 186.332,493.831 198.5,488.5C 188.232,470.55 185.732,451.55 191,431.5C 191.333,431.833 191.667,432.167 192,432.5C 197.379,421.477 206.045,417.144 218,419.5C 220.783,414.718 224.283,410.551 228.5,407C 232.785,404.294 237.452,403.127 242.5,403.5C 242.334,398.489 242.501,393.489 243,388.5C 245.414,380.594 247.414,372.594 249,364.5C 255.799,352.009 265.299,349.343 277.5,356.5C 286.076,347.978 295.243,347.312 305,354.5C 309.084,341.331 316.418,330.331 327,321.5C 327.561,322.022 328.228,322.355 329,322.5C 337.8,319.262 345.3,321.262 351.5,328.5C 363.088,323.196 371.921,326.196 378,337.5C 379.837,345.65 377.837,352.65 372,358.5C 373.189,368.328 369.689,375.828 361.5,381C 361.833,381.333 362.167,381.667 362.5,382C 352.875,384.965 343.042,386.799 333,387.5C 323.697,387.343 315.197,384.677 307.5,379.5C 307.167,379.667 306.833,379.833 306.5,380C 311.384,389.601 310.05,398.267 302.5,406C 303.579,406.956 304.745,407.789 306,408.5C 306.667,409.167 306.667,409.833 306,410.5C 295.558,417.97 284.058,423.137 271.5,426C 267.848,426.499 264.182,426.665 260.5,426.5C 260.337,428.857 260.503,431.19 261,433.5C 268.775,441.407 270.608,450.574 266.5,461C 266.957,461.414 267.291,461.914 267.5,462.5C 260.114,475.055 250.447,485.555 238.5,494C 233.728,496.72 228.728,498.887 223.5,500.5C 224.73,502.933 225.73,505.433 226.5,508C 239.807,511.767 246.474,520.6 246.5,534.5C 244.607,546.072 241.774,557.405 238,568.5C 236.335,573.49 233.835,577.99 230.5,582C 233.959,584.082 236.626,586.915 238.5,590.5C 246.069,590.973 253.069,593.14 259.5,597C 262.783,600.397 265.449,604.23 267.5,608.5C 268.325,609.386 269.325,609.719 270.5,609.5C 272.26,624.454 272.76,639.454 272,654.5C 270.66,660.861 269.16,667.195 267.5,673.5C 271.991,673.829 276.158,675.163 280,677.5C 292.118,670.147 303.452,671.147 314,680.5C 314.718,679.549 315.551,679.383 316.5,680C 323.295,689.751 329.461,699.917 335,710.5C 338.552,719.932 341.219,729.599 343,739.5C 349.511,745.673 356.844,750.673 365,754.5C 372.028,735.457 385.195,728.957 404.5,735C 410.073,738.739 414.406,743.572 417.5,749.5C 431.834,727.935 448.334,725.935 467,743.5C 470.948,749.651 472.948,755.985 473,762.5C 490.505,757.159 507.005,749.825 522.5,740.5 Z"/></g>
<g><path style="opacity:1" fill="#263338" d="M 489.5,328.5 C 488.903,328.735 488.57,329.235 488.5,330C 489.29,334.153 489.956,338.32 490.5,342.5C 488.401,338.205 487.234,333.538 487,328.5C 485.878,326.376 484.378,324.543 482.5,323C 485.464,323.772 487.798,325.605 489.5,328.5 Z"/></g>
<g><path style="opacity:1" fill="#f8f8f9" d="M 332.5,324.5 C 340.394,323.781 346.394,326.781 350.5,333.5C 361.415,326.393 369.581,328.726 375,340.5C 375.546,347.744 373.046,353.744 367.5,358.5C 369.496,365.351 367.829,371.185 362.5,376C 360.956,377.187 359.289,377.52 357.5,377C 353.508,373.669 349.175,370.836 344.5,368.5C 344.468,364.398 345.635,360.398 348,356.5C 349.684,352.284 350.851,347.951 351.5,343.5C 345.359,343.1 339.359,343.767 333.5,345.5C 332.609,339.888 331.276,334.388 329.5,329C 329.557,326.791 330.557,325.291 332.5,324.5 Z"/></g>
<g><path style="opacity:1" fill="#008f3e" d="M 324.5,328.5 C 326.096,330.832 327.262,333.499 328,336.5C 328.899,341.151 329.732,345.818 330.5,350.5C 335.594,348.227 340.927,347.227 346.5,347.5C 344.752,355.167 341.752,362.333 337.5,369C 343.834,372.165 349.834,375.831 355.5,380C 339.977,385.632 324.977,384.632 310.5,377C 310.598,369.191 310.098,361.358 309,353.5C 312.38,343.976 317.546,335.642 324.5,328.5 Z"/></g>
<g><path style="opacity:1" fill="#3a3b24" d="M 491.5,329.5 C 496.104,331.105 499.438,334.105 501.5,338.5C 498.141,335.471 494.808,332.471 491.5,329.5 Z"/></g>
<g><path style="opacity:1" fill="#f6ed01" d="M 489.5,328.5 C 489.842,329.338 490.508,329.672 491.5,329.5C 494.808,332.471 498.141,335.471 501.5,338.5C 503.551,343.018 503.884,347.685 502.5,352.5C 497.554,350.214 493.554,346.88 490.5,342.5C 489.956,338.32 489.29,334.153 488.5,330C 488.57,329.235 488.903,328.735 489.5,328.5 Z"/></g>
<g><path style="opacity:1" fill="#f2e902" d="M 514.5,336.5 C 516.603,339.72 518.936,342.72 521.5,345.5C 522.939,350.249 522.772,354.916 521,359.5C 519.385,358.614 517.885,357.614 516.5,356.5C 514.139,354.806 512.139,352.806 510.5,350.5C 509.321,345.172 509.321,339.838 510.5,334.5C 511.622,335.63 512.956,336.297 514.5,336.5 Z"/></g>
<g><path style="opacity:1" fill="#20201f" d="M 460.5,335.5 C 460.082,336.222 459.416,336.722 458.5,337C 459.381,337.708 460.047,338.542 460.5,339.5C 457.238,337.254 453.571,335.754 449.5,335C 453.129,335.11 456.796,335.276 460.5,335.5 Z"/></g>
<g><path style="opacity:1" fill="#efe503" d="M 460.5,335.5 C 470.296,334.267 478.796,336.933 486,343.5C 487.559,345.217 488.392,347.217 488.5,349.5C 483.871,350.481 479.204,350.648 474.5,350C 469.108,347.437 464.441,343.937 460.5,339.5C 460.047,338.542 459.381,337.708 458.5,337C 459.416,336.722 460.082,336.222 460.5,335.5 Z"/></g>
<g><path style="opacity:1" fill="#3d3c1f" d="M 510.5,333.5 C 512.404,333.738 513.738,334.738 514.5,336.5C 512.956,336.297 511.622,335.63 510.5,334.5C 509.321,339.838 509.321,345.172 510.5,350.5C 509.069,349.22 508.402,347.553 508.5,345.5C 507.911,341.029 508.577,337.029 510.5,333.5 Z"/></g>
<g><path style="opacity:1" fill="#1e4c68" d="M 510.5,333.5 C 508.577,337.029 507.911,341.029 508.5,345.5C 507.674,341.018 507.174,336.351 507,331.5C 505.954,329.91 504.787,328.41 503.5,327C 504.167,326.333 504.833,326.333 505.5,327C 507.054,329.287 508.721,331.454 510.5,333.5 Z"/></g>
<g><path style="opacity:1" fill="#252f32" d="M 537.5,351.5 C 534.882,348.215 531.882,345.215 528.5,342.5C 527.505,347.792 527.172,353.125 527.5,358.5C 526.672,352.347 526.172,346.013 526,339.5C 525.365,338.034 524.531,336.7 523.5,335.5C 527.465,338.949 531.632,342.949 536,347.5C 536.791,348.745 537.291,350.078 537.5,351.5 Z"/></g>
<g><path style="opacity:1" fill="#313632" d="M 514.5,336.5 C 516.017,336.511 517.184,337.177 518,338.5C 519.705,340.577 520.872,342.91 521.5,345.5C 518.936,342.72 516.603,339.72 514.5,336.5 Z"/></g>
<g><path style="opacity:1" fill="#f3ea02" d="M 537.5,351.5 C 539.642,357.4 539.976,363.4 538.5,369.5C 535.233,367.573 532.233,365.239 529.5,362.5C 529.34,360.847 528.674,359.514 527.5,358.5C 527.172,353.125 527.505,347.792 528.5,342.5C 531.882,345.215 534.882,348.215 537.5,351.5 Z"/></g>
<g><path style="opacity:1" fill="#202425" d="M 460.5,339.5 C 464.441,343.937 469.108,347.437 474.5,350C 479.204,350.648 483.871,350.481 488.5,349.5C 489.167,350.167 489.833,350.833 490.5,351.5C 491.167,351.5 491.833,351.5 492.5,351.5C 492.833,352.167 493.167,352.833 493.5,353.5C 491.435,353.517 489.435,353.85 487.5,354.5C 487.119,353.069 486.119,352.236 484.5,352C 473.769,352.803 465.769,348.637 460.5,339.5 Z"/></g>
<g><path style="opacity:1" fill="#302f1f" d="M 460.5,335.5 C 471.725,333.017 481.392,336.017 489.5,344.5C 490.298,344.043 490.631,343.376 490.5,342.5C 493.554,346.88 497.554,350.214 502.5,352.5C 503.884,347.685 503.551,343.018 501.5,338.5C 502.79,339.058 503.623,340.058 504,341.5C 504.497,344.146 504.664,346.813 504.5,349.5C 504.527,351.199 505.194,352.533 506.5,353.5C 504.255,353.541 503.588,354.375 504.5,356C 507.726,357.199 511.059,357.699 514.5,357.5C 515.492,357.672 516.158,357.338 516.5,356.5C 517.885,357.614 519.385,358.614 521,359.5C 522.772,354.916 522.939,350.249 521.5,345.5C 522.222,345.918 522.722,346.584 523,347.5C 523.175,351.211 523.675,354.878 524.5,358.5C 525.687,359.653 526.687,359.653 527.5,358.5C 528.674,359.514 529.34,360.847 529.5,362.5C 529.5,362.833 529.5,363.167 529.5,363.5C 527.16,362.914 524.993,361.914 523,360.5C 522.308,361.025 521.808,361.692 521.5,362.5C 523.598,364.204 525.931,365.537 528.5,366.5C 526.833,367.167 525.167,367.833 523.5,368.5C 521.079,368.878 518.746,369.545 516.5,370.5C 517.975,368.59 519.975,367.424 522.5,367C 521.5,366.5 520.5,366 519.5,365.5C 517.757,367.038 515.757,368.038 513.5,368.5C 512.653,369.966 511.32,370.8 509.5,371C 501.464,371.665 493.464,371.331 485.5,370C 488.633,370.046 491.3,369.046 493.5,367C 491.527,366.505 489.527,366.338 487.5,366.5C 494.232,364.779 499.232,360.779 502.5,354.5C 499.572,353.516 496.572,353.183 493.5,353.5C 493.167,352.833 492.833,352.167 492.5,351.5C 498.848,351.621 498.848,350.621 492.5,348.5C 491.575,349.357 490.908,350.357 490.5,351.5C 489.833,350.833 489.167,350.167 488.5,349.5C 488.392,347.217 487.559,345.217 486,343.5C 478.796,336.933 470.296,334.267 460.5,335.5 Z"/></g>
<g><path style="opacity:1" fill="#171715" d="M 504.5,349.5 C 506.477,351.188 508.477,351.521 510.5,350.5C 512.139,352.806 514.139,354.806 516.5,356.5C 516.158,357.338 515.492,357.672 514.5,357.5C 512.147,355.657 509.48,354.323 506.5,353.5C 505.194,352.533 504.527,351.199 504.5,349.5 Z"/></g>
<g><path style="opacity:1" fill="#f0e601" d="M 492.5,351.5 C 491.833,351.5 491.167,351.5 490.5,351.5C 490.908,350.357 491.575,349.357 492.5,348.5C 498.848,350.621 498.848,351.621 492.5,351.5 Z"/></g>
<g><path style="opacity:1" fill="#f9f9f9" d="M 286.5,353.5 C 301.004,352.502 307.504,359.169 306,373.5C 304.953,375.762 303.787,377.929 302.5,380C 308.829,389.838 307.162,398.004 297.5,404.5C 293.258,403.251 288.925,402.417 284.5,402C 284.043,401.586 283.709,401.086 283.5,400.5C 285.181,392.271 285.847,383.937 285.5,375.5C 279.047,376.651 273.047,378.985 267.5,382.5C 263.875,375.413 259.875,368.58 255.5,362C 259.981,356.383 265.648,355.05 272.5,358C 274.624,359.122 276.457,360.622 278,362.5C 280.362,358.973 283.196,355.973 286.5,353.5 Z"/></g>
<g><path style="opacity:1" fill="#f3e902" d="M 493.5,353.5 C 496.572,353.183 499.572,353.516 502.5,354.5C 499.232,360.779 494.232,364.779 487.5,366.5C 483.671,367.069 480.337,366.402 477.5,364.5C 478.5,364.167 479.167,363.5 479.5,362.5C 482.5,360.167 485.167,357.5 487.5,354.5C 489.435,353.85 491.435,353.517 493.5,353.5 Z"/></g>
<g><path style="opacity:1" fill="#e3da02" d="M 506.5,353.5 C 509.48,354.323 512.147,355.657 514.5,357.5C 511.059,357.699 507.726,357.199 504.5,356C 503.588,354.375 504.255,353.541 506.5,353.5 Z"/></g>
<g><path style="opacity:1" fill="#f4ea02" d="M 549.5,376.5 C 547.474,372.419 546.474,368.085 546.5,363.5C 547.369,361.283 547.702,358.95 547.5,356.5C 548.268,355.737 548.768,354.737 549,353.5C 558.684,361.453 561.017,371.12 556,382.5C 553.963,380.294 551.797,378.294 549.5,376.5 Z"/></g>
<g><path style="opacity:1" fill="#3b3b21" d="M 487.5,354.5 C 485.167,357.5 482.5,360.167 479.5,362.5C 481.167,358.833 483.833,356.167 487.5,354.5 Z"/></g>
<g><path style="opacity:1" fill="#f6ed01" d="M 513.5,368.5 C 506.81,370.815 500.144,370.981 493.5,369C 497.167,366 500.833,363 504.5,360C 509.921,359.161 515.254,359.494 520.5,361C 518.639,364.025 516.306,366.525 513.5,368.5 Z"/></g>
<g><path style="opacity:1" fill="#ded602" d="M 529.5,363.5 C 530.29,364.794 531.29,365.961 532.5,367C 531.072,367.579 529.738,367.412 528.5,366.5C 525.931,365.537 523.598,364.204 521.5,362.5C 521.808,361.692 522.308,361.025 523,360.5C 524.993,361.914 527.16,362.914 529.5,363.5 Z"/></g>
<g><path style="opacity:1" fill="#272d2e" d="M 576.5,387.5 C 576.739,378.979 573.906,371.645 568,365.5C 567.768,366.737 567.268,367.737 566.5,368.5C 566.642,364.85 565.975,361.35 564.5,358C 564.833,357.5 565.167,357 565.5,356.5C 567.247,362.089 570.08,367.089 574,371.5C 577.285,376.621 578.118,381.955 576.5,387.5 Z"/></g>
<g><path style="opacity:1" fill="#21333c" d="M 477.5,364.5 C 480.337,366.402 483.671,367.069 487.5,366.5C 481.315,367.503 474.982,368.003 468.5,368C 471.42,366.684 474.42,365.517 477.5,364.5 Z"/></g>
<g><path style="opacity:1" fill="#f3e902" d="M 576.5,387.5 C 575.301,390.563 573.801,393.563 572,396.5C 564.333,388.36 562.5,379.027 566.5,368.5C 567.268,367.737 567.768,366.737 568,365.5C 573.906,371.645 576.739,378.979 576.5,387.5 Z"/></g>
<g><path style="opacity:1" fill="#f4eb01" d="M 523.5,368.5 C 527.247,368.392 530.914,368.892 534.5,370C 535.756,370.417 536.423,371.25 536.5,372.5C 533.479,375.338 530.146,377.672 526.5,379.5C 526.167,379.5 525.833,379.5 525.5,379.5C 519.598,380.038 513.932,379.205 508.5,377C 509.056,376.617 509.389,376.117 509.5,375.5C 511.027,375.573 512.027,374.906 512.5,373.5C 514.404,373.262 515.738,372.262 516.5,370.5C 518.746,369.545 521.079,368.878 523.5,368.5 Z"/></g>
<g><path style="opacity:1" fill="#1c1c17" d="M 537.5,351.5 C 538.966,352.347 539.8,353.68 540,355.5C 540.333,359.5 540.667,363.5 541,367.5C 542.085,368.293 543.252,368.96 544.5,369.5C 545.169,367.369 545.835,365.369 546.5,363.5C 546.474,368.085 547.474,372.419 549.5,376.5C 546.672,374.252 543.672,372.252 540.5,370.5C 540.158,369.662 539.492,369.328 538.5,369.5C 539.976,363.4 539.642,357.4 537.5,351.5 Z"/></g>
<g><path style="opacity:1" fill="#008f3e" d="M 253.5,368.5 C 259.321,373.885 263.488,380.552 266,388.5C 270.557,384.638 275.724,381.972 281.5,380.5C 281.638,388.906 280.971,397.24 279.5,405.5C 286.513,405.373 293.18,406.706 299.5,409.5C 288.164,418.66 275.164,422.994 260.5,422.5C 259.167,414.183 254.667,408.183 247,404.5C 245.347,391.784 247.514,379.784 253.5,368.5 Z"/></g>
<g><path style="opacity:1" fill="#e1d802" d="M 540.5,370.5 C 543.672,372.252 546.672,374.252 549.5,376.5C 550.087,377.767 550.087,378.767 549.5,379.5C 545.525,377.501 541.859,375.168 538.5,372.5C 538.833,371.5 539.5,370.833 540.5,370.5 Z"/></g>
<g><path style="opacity:1" fill="#413b15" d="M 529.5,362.5 C 532.233,365.239 535.233,367.573 538.5,369.5C 539.492,369.328 540.158,369.662 540.5,370.5C 539.5,370.833 538.833,371.5 538.5,372.5C 537.833,372.5 537.167,372.5 536.5,372.5C 536.423,371.25 535.756,370.417 534.5,370C 530.914,368.892 527.247,368.392 523.5,368.5C 525.167,367.833 526.833,367.167 528.5,366.5C 529.738,367.412 531.072,367.579 532.5,367C 531.29,365.961 530.29,364.794 529.5,363.5C 529.5,363.167 529.5,362.833 529.5,362.5 Z"/></g>
<g><path style="opacity:1" fill="#302f1d" d="M 512.5,373.5 C 512.027,374.906 511.027,375.573 509.5,375.5C 509.973,374.094 510.973,373.427 512.5,373.5 Z"/></g>
<g><path style="opacity:1" fill="#212221" d="M 509.5,375.5 C 509.389,376.117 509.056,376.617 508.5,377C 513.932,379.205 519.598,380.038 525.5,379.5C 521.354,380.647 517.02,380.814 512.5,380C 508.389,378.109 504.056,377.109 499.5,377C 502.88,376.661 506.213,376.161 509.5,375.5 Z"/></g>
<g><path style="opacity:1" fill="#f5eb01" d="M 548.5,389.5 C 541.826,390.783 535.159,390.783 528.5,389.5C 527.571,388.685 526.571,387.852 525.5,387C 527.584,386.303 529.251,385.136 530.5,383.5C 538.502,378.24 546.502,378.24 554.5,383.5C 552.785,385.882 550.785,387.882 548.5,389.5 Z"/></g>
<g><path style="opacity:1" fill="#22201b" d="M 530.5,383.5 C 529.251,385.136 527.584,386.303 525.5,387C 526.571,387.852 527.571,388.685 528.5,389.5C 524.642,388.161 520.642,387.327 516.5,387C 521.49,386.964 526.156,385.798 530.5,383.5 Z"/></g>
<g><path style="opacity:1" fill="#2d3e44" d="M 528.5,389.5 C 535.159,390.783 541.826,390.783 548.5,389.5C 541.833,393.5 535.167,393.5 528.5,389.5 Z"/></g>
<g><path style="opacity:1" fill="#f1e802" d="M 566.5,401.5 C 564.597,401.796 562.93,402.463 561.5,403.5C 554.439,404.033 547.773,402.699 541.5,399.5C 540.402,398.603 540.402,397.77 541.5,397C 546.303,394.597 551.303,392.764 556.5,391.5C 561.073,392.302 565.406,393.802 569.5,396C 570.451,396.718 570.617,397.551 570,398.5C 568.855,399.636 567.688,400.636 566.5,401.5 Z"/></g>
<g><path style="opacity:1" fill="#262928" d="M 541.5,399.5 C 547.773,402.699 554.439,404.033 561.5,403.5C 554.145,405.664 547.479,404.33 541.5,399.5 Z"/></g>
<g><path style="opacity:1" fill="#fbfbfb" d="M 235.5,407.5 C 251.134,407.3 258.301,414.967 257,430.5C 256.5,431.5 256,432.5 255.5,433.5C 264.809,440.094 267.475,448.761 263.5,459.5C 255.038,460.124 246.705,461.457 238.5,463.5C 237.853,453.241 235.186,443.574 230.5,434.5C 223.892,438.442 218.225,443.442 213.5,449.5C 207.475,444.47 201.475,439.47 195.5,434.5C 200.595,423.12 208.928,419.787 220.5,424.5C 223.095,416.58 228.095,410.913 235.5,407.5 Z"/></g>
<g><path style="opacity:1" fill="#264358" d="M 566.5,417.5 C 570.5,417.5 574.5,417.5 578.5,417.5C 576.883,418.972 574.883,419.639 572.5,419.5C 570.117,419.639 568.117,418.972 566.5,417.5 Z"/></g>
<g><path style="opacity:1" fill="#00903e" d="M 192.5,438.5 C 200.701,443.196 207.868,449.196 214,456.5C 217.975,449.858 223.142,444.691 229.5,441C 233.156,449.791 235.156,458.958 235.5,468.5C 243.953,465.702 252.62,464.535 261.5,465C 254.119,476.714 244.453,486.048 232.5,493C 229.132,494.551 225.632,495.717 222,496.5C 216.427,491.632 209.927,488.799 202.5,488C 193.61,472.719 190.277,456.219 192.5,438.5 Z"/></g>
<g><path style="opacity:1" fill="#0a0d0f" d="M 486.5,441.5 C 489.583,444.37 493.25,446.203 497.5,447C 506.894,448.745 516.228,450.745 525.5,453C 534.147,457.45 538.314,464.616 538,474.5C 538.333,484.833 538.667,495.167 539,505.5C 539.973,508.779 541.473,511.779 543.5,514.5C 541.064,515.332 538.897,514.665 537,512.5C 536.154,506.924 534.487,501.591 532,496.5C 529.872,493.542 527.206,492.876 524,494.5C 523,498.167 522,501.833 521,505.5C 518.095,507.093 514.929,508.093 511.5,508.5C 511.167,510.833 510.833,513.167 510.5,515.5C 512.188,527.454 512.688,539.454 512,551.5C 508.171,560.563 501.338,564.397 491.5,563C 490.129,557.077 491.295,551.577 495,546.5C 496.03,541.485 496.697,536.485 497,531.5C 493.663,524.151 489.329,517.484 484,511.5C 483.333,510.167 483.333,508.833 484,507.5C 487.293,504.213 491.127,501.713 495.5,500C 502.524,499.831 509.524,499.331 516.5,498.5C 508.684,484.72 497.851,481.72 484,489.5C 484.074,484.09 484.907,478.757 486.5,473.5C 486.506,469.18 484.673,465.847 481,463.5C 480.833,462.167 480.667,460.833 480.5,459.5C 481.929,453.309 483.929,447.309 486.5,441.5 Z"/></g>
<g><path style="opacity:1" fill="#0a0d0f" d="M 392.5,438.5 C 397.899,438.309 403.233,438.809 408.5,440C 417.379,443.404 426.379,446.404 435.5,449C 441.5,449.667 447.5,449.667 453.5,449C 458.425,448.138 462.925,446.305 467,443.5C 467.666,451.016 467.499,458.516 466.5,466C 465.908,469.201 467.075,471.368 470,472.5C 470.167,474.167 470.333,475.833 470.5,477.5C 467.524,490.674 468.024,503.674 472,516.5C 486.795,526.439 490.795,539.773 484,556.5C 478.174,562.156 471.34,563.823 463.5,561.5C 462.48,559.568 462.313,557.568 463,555.5C 466.73,553.477 470.563,551.644 474.5,550C 479.994,535.847 475.161,528.013 460,526.5C 455.701,527.563 451.534,529.063 447.5,531C 445.833,531.667 444.167,531.667 442.5,531C 437.214,528.062 433.881,523.728 432.5,518C 432.757,515.23 433.757,512.73 435.5,510.5C 429.63,505.432 425.797,499.099 424,491.5C 423.667,478.167 423.333,464.833 423,451.5C 421.734,444.522 419.067,443.855 415,449.5C 413.725,451.717 412.725,454.051 412,456.5C 410.96,466.191 409.793,475.857 408.5,485.5C 409.613,497.676 413.78,508.676 421,518.5C 421.494,520.134 421.66,521.801 421.5,523.5C 414.325,522.652 412.325,525.319 415.5,531.5C 419.912,532.411 422.412,535.077 423,539.5C 424.587,547.375 423.087,554.542 418.5,561C 416.33,562.586 413.996,563.92 411.5,565C 400.833,565.667 390.167,565.667 379.5,565C 377.005,562.781 376.005,559.948 376.5,556.5C 376.667,554.5 376.833,552.5 377,550.5C 378.829,548.844 380.163,546.844 381,544.5C 381.667,539.5 381.667,534.5 381,529.5C 375.706,525.416 371.206,520.583 367.5,515C 366.167,514.333 364.833,513.667 363.5,513C 352.167,512.333 340.833,512.333 329.5,513C 324.667,515.833 319.833,518.667 315,521.5C 314.667,519.5 314.333,517.5 314,515.5C 313.439,514.978 312.772,514.645 312,514.5C 303.605,516.267 295.105,516.934 286.5,516.5C 286.467,512.113 284.134,509.946 279.5,510C 275.316,506.218 275.649,502.885 280.5,500C 275.451,496.406 273.284,491.573 274,485.5C 287.238,491.803 297.405,488.803 304.5,476.5C 302.405,470.945 301.738,465.278 302.5,459.5C 303.874,460.711 305.374,461.711 307,462.5C 308.884,460.55 310.218,458.216 311,455.5C 311.739,454.426 312.739,453.759 314,453.5C 317.143,457.313 320.309,461.147 323.5,465C 330.191,465.169 336.858,465.669 343.5,466.5C 346.873,476.531 352.873,484.531 361.5,490.5C 364.854,481.236 363.688,472.57 358,464.5C 354.167,460.667 350.333,456.833 346.5,453C 352.122,450.919 357.622,451.419 363,454.5C 368.236,451.13 373.403,447.63 378.5,444C 383.017,441.445 387.684,439.612 392.5,438.5 Z"/></g>
<g><path style="opacity:1" fill="#008fd7" d="M 369.5,452.5 C 378.59,456.961 384.09,464.294 386,474.5C 386.333,478.167 386.667,481.833 387,485.5C 391.376,490.919 394.71,496.919 397,503.5C 397.333,509.5 397.667,515.5 398,521.5C 403.718,524.529 404.718,528.529 401,533.5C 400.333,537.833 400.333,542.167 401,546.5C 401.71,547.973 402.876,548.64 404.5,548.5C 406.834,559 402.834,562.833 392.5,560C 389.758,558.93 387.258,557.43 385,555.5C 385.384,546.517 385.384,537.517 385,528.5C 381.784,517.135 379.784,505.469 379,493.5C 376.495,489.418 373.495,485.751 370,482.5C 370.251,475.796 368.918,469.463 366,463.5C 365.333,460.833 365.333,458.167 366,455.5C 367.518,454.837 368.685,453.837 369.5,452.5 Z"/></g>
<g><path style="opacity:1" fill="#008ed6" d="M 318.5,466.5 C 324.357,469.369 330.691,470.703 337.5,470.5C 337.657,471.873 337.49,473.207 337,474.5C 328.768,477.615 326.768,482.948 331,490.5C 333.333,493.5 335.667,496.5 338,499.5C 338.743,501.441 338.576,503.274 337.5,505C 334.283,507.784 330.616,509.118 326.5,509C 323,504.833 319.5,500.667 316,496.5C 315.861,493.425 316.361,490.425 317.5,487.5C 313.176,487.842 311.176,485.842 311.5,481.5C 312.154,477.316 314.321,473.982 318,471.5C 318.494,469.866 318.66,468.199 318.5,466.5 Z"/></g>
<g><path style="opacity:1" fill="#008cd3" d="M 298.5,486.5 C 307.49,484.986 310.49,488.486 307.5,497C 297.952,498.636 294.952,495.136 298.5,486.5 Z"/></g>
<g><path style="opacity:1" fill="#fafafb" d="M 198.5,492.5 C 212.752,491.261 220.752,497.594 222.5,511.5C 235.929,512.76 242.429,520.093 242,533.5C 233.907,537.134 226.74,542.134 220.5,548.5C 213.841,540.174 206.507,532.508 198.5,525.5C 193.842,532.475 191.175,540.142 190.5,548.5C 182.54,546.951 174.54,545.618 166.5,544.5C 165.314,529.869 171.98,521.536 186.5,519.5C 182.765,507.033 186.765,498.033 198.5,492.5 Z"/></g>
<g><path style="opacity:1" fill="#25241d" d="M 566.5,368.5 C 562.5,379.027 564.333,388.36 572,396.5C 573.801,393.563 575.301,390.563 576.5,387.5C 576.643,389.262 576.309,390.929 575.5,392.5C 576.48,393.981 577.647,395.315 579,396.5C 580.246,390.005 582.079,383.671 584.5,377.5C 584.033,375.432 583.366,373.432 582.5,371.5C 583.167,370.167 583.833,370.167 584.5,371.5C 585.189,373.444 585.689,375.444 586,377.5C 592.421,384.665 595.087,392.998 594,402.5C 593.722,403.416 593.222,404.082 592.5,404.5C 591.986,406.512 591.82,408.512 592,410.5C 593.667,412.167 595.333,413.833 597,415.5C 599.632,410.186 602.299,404.853 605,399.5C 605.175,395.789 605.675,392.122 606.5,388.5C 606.886,394.94 608.719,400.94 612,406.5C 612.816,411.684 612.65,416.684 611.5,421.5C 611.092,424.725 610.092,427.725 608.5,430.5C 609.398,432.626 610.565,434.626 612,436.5C 614.498,430.01 617.832,424.01 622,418.5C 622.333,415.5 622.667,412.5 623,409.5C 625.232,417.541 627.065,425.708 628.5,434C 628.136,441.095 625.803,447.428 621.5,453C 622.196,454.893 623.03,456.726 624,458.5C 627.605,451.9 631.605,445.566 636,439.5C 636.179,436.447 636.679,433.447 637.5,430.5C 638.313,438.765 639.646,446.932 641.5,455C 640.929,463.562 637.929,471.062 632.5,477.5C 633.369,480.941 634.536,484.274 636,487.5C 637,485.5 638,483.5 639,481.5C 643.634,477.868 647.967,473.868 652,469.5C 652.667,466.833 653.333,464.167 654,461.5C 654.893,460.289 655.726,460.289 656.5,461.5C 655.902,462.795 655.402,464.128 655,465.5C 654.667,473.167 654.333,480.833 654,488.5C 651.908,495.58 647.908,501.247 642,505.5C 641.752,509.936 642.419,514.27 644,518.5C 648.081,513.036 653.248,508.869 659.5,506C 663.279,502.942 665.946,499.109 667.5,494.5C 668.314,496.952 667.814,499.285 666,501.5C 665.942,513.267 662.442,523.767 655.5,533C 652.922,535.207 650.089,537.04 647,538.5C 646.333,543.833 646.333,549.167 647,554.5C 653.411,549.355 660.578,545.521 668.5,543C 671.361,540.106 673.861,536.939 676,533.5C 676.167,534 676.333,534.5 676.5,535C 672.367,545.296 667.867,555.462 663,565.5C 658.567,570.635 653.067,574.135 646.5,576C 645.39,578.737 645.223,581.571 646,584.5C 653.027,580.709 660.527,577.876 668.5,576C 670.806,573.694 673.14,571.36 675.5,569C 676.167,568.333 676.833,568.333 677.5,569C 676.042,571.46 674.209,573.627 672,575.5C 668.586,587.177 662.086,596.677 652.5,604C 649.269,605.466 645.935,606.633 642.5,607.5C 640.975,610.278 639.975,613.278 639.5,616.5C 639.833,616.833 640.167,617.167 640.5,617.5C 647.394,615.886 654.394,614.719 661.5,614C 665.278,611.888 668.778,609.388 672,606.5C 672.5,607 673,607.5 673.5,608C 666.551,613.055 661.384,619.555 658,627.5C 651.264,636.119 642.431,640.952 631.5,642C 629.804,644.587 628.804,647.421 628.5,650.5C 637.173,650.666 645.84,650.5 654.5,650C 657.418,648.291 660.252,646.458 663,644.5C 663.5,645 664,645.5 664.5,646C 661.672,648.248 658.672,650.248 655.5,652C 646.027,667.072 632.36,674.905 614.5,675.5C 612.167,678.833 609.833,682.167 607.5,685.5C 616.242,686.747 624.909,688.413 633.5,690.5C 637.782,689.613 641.949,688.28 646,686.5C 646.5,686.833 647,687.167 647.5,687.5C 644.495,689.671 641.161,691.171 637.5,692C 629.733,700.218 620.4,705.885 609.5,709C 602.733,709.545 596.067,709.212 589.5,708C 587.5,710 585.5,712 583.5,714C 592.37,716.401 601.036,719.401 609.5,723C 613.706,723.162 617.873,722.662 622,721.5C 622.833,721.833 623.667,722.167 624.5,722.5C 620.506,723.665 616.506,724.832 612.5,726C 600.375,735.448 586.709,739.114 571.5,737C 568.048,735.774 564.715,734.274 561.5,732.5C 559.167,734 556.833,735.5 554.5,737C 559.005,737.263 563.339,738.263 567.5,740C 572.38,742.607 577.38,744.94 582.5,747C 587.869,746.825 593.202,746.992 598.5,747.5C 589.556,748.968 581.223,752.135 573.5,757C 559.566,763.769 546.232,762.936 533.5,754.5C 532.335,752.891 531.001,752.557 529.5,753.5C 527.745,750.32 525.745,747.32 523.5,744.5C 523.768,742.901 523.434,741.568 522.5,740.5C 517.387,726.754 518.887,713.754 527,701.5C 529.667,698.167 532.333,694.833 535,691.5C 541.102,674.042 542.268,674.209 538.5,692C 540.097,699.22 541.93,706.387 544,713.5C 544.697,717.535 544.53,721.535 543.5,725.5C 543.833,726.167 544.167,726.833 544.5,727.5C 546.576,725.712 548.743,724.046 551,722.5C 550.245,718.542 549.245,714.542 548,710.5C 546.829,702.207 547.829,694.207 551,686.5C 553.833,680.83 557.166,675.497 561,670.5C 562.31,666.93 563.143,663.263 563.5,659.5C 564.675,659.281 565.675,659.614 566.5,660.5C 564.722,663.946 563.722,667.612 563.5,671.5C 564.958,678.708 567.125,685.708 570,692.5C 570.333,696.833 570.667,701.167 571,705.5C 573.767,703.242 575.934,700.575 577.5,697.5C 572.186,688.91 570.019,679.576 571,669.5C 572.84,662.159 575.507,655.159 579,648.5C 579.105,644.63 579.938,640.963 581.5,637.5C 581.692,641.411 581.859,645.411 582,649.5C 585.299,656.147 588.632,662.814 592,669.5C 592.988,672.424 593.654,675.424 594,678.5C 596.182,674.99 598.349,671.49 600.5,668C 591.566,658.194 588.066,646.694 590,633.5C 591.761,625.594 592.928,617.594 593.5,609.5C 594.192,610.025 594.692,610.692 595,611.5C 595.333,614.833 595.667,618.167 596,621.5C 599.285,626.454 602.952,631.12 607,635.5C 609.434,638.795 611.101,642.462 612,646.5C 613.688,643.774 615.188,640.941 616.5,638C 609.341,632.836 604.508,626.003 602,617.5C 601.985,606.404 601.151,595.404 599.5,584.5C 600.274,583.289 601.107,583.289 602,584.5C 602.257,588.377 603.257,592.043 605,595.5C 610,600.167 615,604.833 620,609.5C 621.08,611.996 622.414,614.33 624,616.5C 625.324,612.554 625.991,608.554 626,604.5C 616.869,599.023 611.202,591.023 609,580.5C 609.403,572.578 607.903,565.078 604.5,558C 604.974,556.392 605.641,556.226 606.5,557.5C 607.782,562.567 610.449,566.733 614.5,570C 620.23,573.062 625.397,576.896 630,581.5C 631.375,579.063 631.875,576.397 631.5,573.5C 625.873,571.762 621.373,568.428 618,563.5C 613.94,556.713 611.606,549.38 611,541.5C 609.483,538.657 607.983,535.823 606.5,533C 606.974,531.392 607.641,531.226 608.5,532.5C 609.789,535.58 611.455,538.414 613.5,541C 619.658,543.912 625.658,547.079 631.5,550.5C 632.833,546.833 632.833,543.167 631.5,539.5C 625.776,537.89 620.943,534.89 617,530.5C 612.612,524.391 609.279,517.724 607,510.5C 605.285,508.241 603.452,506.074 601.5,504C 604.945,505.407 607.945,507.741 610.5,511C 615.772,512.869 621.106,514.535 626.5,516C 627.931,516.465 629.097,517.299 630,518.5C 630.388,515.151 630.221,511.817 629.5,508.5C 623.522,508.507 618.189,506.673 613.5,503C 606.977,495.311 600.644,487.478 594.5,479.5C 594.667,479.167 594.833,478.833 595,478.5C 597.833,480.667 600.667,482.833 603.5,485C 610.01,485.307 616.343,486.474 622.5,488.5C 622.833,488.167 623.167,487.833 623.5,487.5C 622.253,485.677 621.586,483.677 621.5,481.5C 616.284,481.866 611.284,481.032 606.5,479C 603.328,477.248 600.328,475.248 597.5,473C 593.788,467.621 589.121,463.287 583.5,460C 585.788,459.582 587.788,460.249 589.5,462C 597.079,462.184 604.579,462.684 612,463.5C 612.265,461.837 611.765,460.337 610.5,459C 605.437,458.752 600.437,458.085 595.5,457C 588.025,451.692 580.692,446.192 573.5,440.5C 573.667,440.167 573.833,439.833 574,439.5C 577.08,441.886 580.58,442.886 584.5,442.5C 589.886,442.228 595.219,441.562 600.5,440.5C 598.121,436.465 594.621,435.465 590,437.5C 581.838,436.689 575.005,433.189 569.5,427C 566.491,425.496 563.491,423.996 560.5,422.5C 560.833,422.167 561.167,421.833 561.5,421.5C 564.095,423.216 566.929,424.216 570,424.5C 575.577,423.474 581.077,422.141 586.5,420.5C 584.818,416.653 582.151,415.653 578.5,417.5C 580.762,416.177 583.096,414.843 585.5,413.5C 586.521,412.998 586.688,412.332 586,411.5C 581.43,408.031 576.264,406.031 570.5,405.5C 564.948,406.629 559.615,408.462 554.5,411C 558.434,413.464 562.434,415.631 566.5,417.5C 561.22,416.694 556.554,414.527 552.5,411C 549.957,410.86 547.623,410.194 545.5,409C 547.68,408.581 549.846,408.748 552,409.5C 558.738,407.253 565.571,405.42 572.5,404C 571.022,401.961 569.022,401.128 566.5,401.5C 567.688,400.636 568.855,399.636 570,398.5C 570.617,397.551 570.451,396.718 569.5,396C 565.406,393.802 561.073,392.302 556.5,391.5C 551.303,392.764 546.303,394.597 541.5,397C 540.402,397.77 540.402,398.603 541.5,399.5C 537.878,398.395 534.211,397.395 530.5,396.5C 533.75,396.192 537.083,396.025 540.5,396C 545.87,393.148 551.537,391.148 557.5,390C 556.601,388.764 555.434,387.93 554,387.5C 552.2,388.32 550.366,388.986 548.5,389.5C 550.785,387.882 552.785,385.882 554.5,383.5C 546.502,378.24 538.502,378.24 530.5,383.5C 533.344,380.259 537.01,378.426 541.5,378C 539.667,376.833 537.833,375.667 536,374.5C 533.448,377.359 530.281,379.026 526.5,379.5C 530.146,377.672 533.479,375.338 536.5,372.5C 537.167,372.5 537.833,372.5 538.5,372.5C 541.859,375.168 545.525,377.501 549.5,379.5C 550.087,378.767 550.087,377.767 549.5,376.5C 551.797,378.294 553.963,380.294 556,382.5C 561.017,371.12 558.684,361.453 549,353.5C 548.768,354.737 548.268,355.737 547.5,356.5C 547.931,352.578 546.931,349.078 544.5,346C 544.833,345.833 545.167,345.667 545.5,345.5C 548.423,350.591 551.923,355.258 556,359.5C 557,361.5 558,363.5 559,365.5C 559.333,370.5 559.667,375.5 560,380.5C 560.689,381.357 561.522,382.023 562.5,382.5C 563.026,377.474 564.359,372.807 566.5,368.5 Z"/></g>
<g><path style="opacity:1" fill="#f7ed01" d="M 609.5,513.5 C 609.735,512.903 610.235,512.57 611,512.5C 613.248,513.955 615.748,514.788 618.5,515C 630.682,518.196 637.682,526.029 639.5,538.5C 629.72,538.36 621.886,534.36 616,526.5C 613.787,522.075 611.621,517.741 609.5,513.5 Z"/></g>
<g><path style="opacity:1" fill="#ede402" d="M 637.5,507.5 C 641.047,515.14 641.88,523.14 640,531.5C 638.516,527.868 636.516,524.534 634,521.5C 633.417,517.168 632.917,512.835 632.5,508.5C 634.415,508.784 636.081,508.451 637.5,507.5 Z"/></g>
<g><path style="opacity:1" fill="#f7ed01" d="M 662.5,505.5 C 664.293,521.42 657.627,532.42 642.5,538.5C 640.354,529.583 642.354,521.75 648.5,515C 653.406,512.058 658.072,508.891 662.5,505.5 Z"/></g>
<g><path style="opacity:1" fill="#f8ee01" d="M 603.5,486.5 C 618.85,485.167 629.516,491.501 635.5,505.5C 619.894,507.572 609.227,501.239 603.5,486.5 Z"/></g>
<g><path style="opacity:1" fill="#f1e801" d="M 624.5,479.5 C 627.547,478.855 629.713,479.855 631,482.5C 633.694,487.901 634.694,493.568 634,499.5C 632.392,495.957 630.058,492.957 627,490.5C 626.394,487.287 625.227,484.287 623.5,481.5C 623.863,480.817 624.196,480.15 624.5,479.5 Z"/></g>
<g><path style="opacity:1" fill="#f6ec01" d="M 651.5,471.5 C 656.149,485.973 651.816,497.306 638.5,505.5C 637.808,504.975 637.308,504.308 637,503.5C 635.859,496.916 636.526,490.583 639,484.5C 643.37,480.298 647.537,475.964 651.5,471.5 Z"/></g>
<g><path style="opacity:1" fill="#f8ee01" d="M 593.5,464.5 C 600.589,464.116 607.589,464.616 614.5,466C 619.641,468.641 623.641,472.474 626.5,477.5C 612.125,481.815 601.125,477.481 593.5,464.5 Z"/></g>
<g><path style="opacity:1" fill="#ece302" d="M 619.5,455.5 C 622.869,460.137 624.202,465.137 623.5,470.5C 618.696,467.698 615.362,463.698 613.5,458.5C 615.033,456.755 617.033,455.755 619.5,455.5 Z"/></g>
<g><path style="opacity:1" fill="#3a3416" d="M 594.5,443.5 C 597.625,442.521 600.958,442.187 604.5,442.5C 607.454,444.28 610.287,446.28 613,448.5C 613.483,447.552 613.649,446.552 613.5,445.5C 614.799,448.395 616.465,451.062 618.5,453.5C 618.833,454.167 619.167,454.833 619.5,455.5C 617.033,455.755 615.033,456.755 613.5,458.5C 611.958,457.699 610.292,457.366 608.5,457.5C 610.903,456.869 613.236,455.869 615.5,454.5C 610.908,446.37 603.908,442.703 594.5,443.5 Z"/></g>
<g><path style="opacity:1" fill="#f5ec01" d="M 636.5,441.5 C 637.6,443.277 638.434,445.277 639,447.5C 641.707,459.21 638.541,468.876 629.5,476.5C 627.879,474.847 626.712,472.847 626,470.5C 625.333,466.167 625.333,461.833 626,457.5C 629.329,452.014 632.829,446.68 636.5,441.5 Z"/></g>
<g><path style="opacity:1" fill="#f3e902" d="M 594.5,443.5 C 603.908,442.703 610.908,446.37 615.5,454.5C 613.236,455.869 610.903,456.869 608.5,457.5C 597.918,457.376 589.251,453.209 582.5,445C 586.44,443.985 590.44,443.485 594.5,443.5 Z"/></g>
<g><path style="opacity:1" fill="#ede402" d="M 606.5,433.5 C 608.901,437.542 611.234,441.542 613.5,445.5C 613.649,446.552 613.483,447.552 613,448.5C 610.287,446.28 607.454,444.28 604.5,442.5C 603.5,440.5 602.5,438.5 601.5,436.5C 602.659,434.75 604.326,433.75 606.5,433.5 Z"/></g>
<g><path style="opacity:1" fill="#3a3416" d="M 599.5,415.5 C 599.251,420.836 600.418,425.836 603,430.5C 603.671,431.252 604.504,431.586 605.5,431.5C 605.833,432.167 606.167,432.833 606.5,433.5C 604.326,433.75 602.659,434.75 601.5,436.5C 600.292,435.766 598.959,435.433 597.5,435.5C 599.019,434.59 600.685,433.757 602.5,433C 599.083,428.394 594.75,425.227 589.5,423.5C 590.338,423.158 590.672,422.492 590.5,421.5C 593.216,423.613 596.05,425.613 599,427.5C 599.409,425.305 598.909,423.305 597.5,421.5C 598.167,419.5 598.833,417.5 599.5,415.5 Z"/></g>
<g><path style="opacity:1" fill="#f7ed01" d="M 589.5,423.5 C 594.75,425.227 599.083,428.394 602.5,433C 600.685,433.757 599.019,434.59 597.5,435.5C 586.667,437.611 577.667,434.444 570.5,426C 576.678,423.999 583.012,423.166 589.5,423.5 Z"/></g>
<g><path style="opacity:1" fill="#f6ec01" d="M 618.5,453.5 C 616.465,451.062 614.799,448.395 613.5,445.5C 613.335,441.818 613.501,438.152 614,434.5C 616.748,429.334 619.748,424.334 623,419.5C 627.662,429.13 627.662,438.797 623,448.5C 621.293,450.037 619.793,451.704 618.5,453.5 Z"/></g>
<g><path style="opacity:1" fill="#efe601" d="M 597.5,421.5 C 598.909,423.305 599.409,425.305 599,427.5C 596.05,425.613 593.216,423.613 590.5,421.5C 589.177,419.529 587.844,417.529 586.5,415.5C 587.347,414.155 588.513,413.155 590,412.5C 592.985,415.162 595.485,418.162 597.5,421.5 Z"/></g>
<g><path style="opacity:1" fill="#f3ea02" d="M 578.5,417.5 C 574.5,417.5 570.5,417.5 566.5,417.5C 562.434,415.631 558.434,413.464 554.5,411C 559.615,408.462 564.948,406.629 570.5,405.5C 576.264,406.031 581.43,408.031 586,411.5C 586.688,412.332 586.521,412.998 585.5,413.5C 583.096,414.843 580.762,416.177 578.5,417.5 Z"/></g>
<g><path style="opacity:1" fill="#f6ed01" d="M 611.5,421.5 C 609.515,424.798 607.515,428.131 605.5,431.5C 604.504,431.586 603.671,431.252 603,430.5C 600.418,425.836 599.251,420.836 599.5,415.5C 601.154,409.854 603.654,404.521 607,399.5C 611.002,406.253 612.502,413.586 611.5,421.5 Z"/></g>
<g><path style="opacity:1" fill="#f1e800" d="M 573.5,396.5 C 578.459,398.615 581.293,402.281 582,407.5C 577.921,405.425 574.421,402.592 571.5,399C 572.756,398.583 573.423,397.75 573.5,396.5 Z"/></g>
<g><path style="opacity:1" fill="#e9e002" d="M 557.5,382.5 C 562.282,384.567 564.949,387.9 565.5,392.5C 562.214,390.549 559.214,388.215 556.5,385.5C 557.127,384.583 557.461,383.583 557.5,382.5 Z"/></g>
<g><path style="opacity:1" fill="#f2e802" d="M 592.5,404.5 C 591.024,406.769 589.524,409.102 588,411.5C 578.744,401.432 578.078,390.766 586,379.5C 591.911,386.817 594.077,395.15 592.5,404.5 Z"/></g>
<g><path style="opacity:1" fill="#008f3e" d="M 198.5,531.5 C 207.09,537.652 214.09,545.319 219.5,554.5C 225.931,548.399 232.931,543.066 240.5,538.5C 240.505,553.591 236.172,567.424 227.5,580C 214.858,575.953 204.358,579.12 196,589.5C 180.32,579.98 170.154,566.313 165.5,548.5C 174.875,548.895 183.875,550.895 192.5,554.5C 193.724,546.604 195.724,538.937 198.5,531.5 Z"/></g>
<g><path style="opacity:1" fill="#f6ed01" d="M 641.5,539.5 C 642.822,542.768 643.489,546.435 643.5,550.5C 643.843,556.057 643.009,561.39 641,566.5C 639.607,562.714 637.941,559.048 636,555.5C 635.501,550.511 635.334,545.511 635.5,540.5C 637.735,540.795 639.735,540.461 641.5,539.5 Z"/></g>
<g><path style="opacity:1" fill="#f6ed01" d="M 613.5,543.5 C 630.208,547.2 638.875,557.533 639.5,574.5C 623.124,570.799 614.457,560.466 613.5,543.5 Z"/></g>
<g><path style="opacity:1" fill="#f7ed01" d="M 667.5,544.5 C 668.497,544.47 669.164,544.97 669.5,546C 667.652,558.743 660.985,567.743 649.5,573C 646.883,573.822 644.216,574.322 641.5,574.5C 641.828,565.341 645.494,557.841 652.5,552C 657.771,549.762 662.771,547.262 667.5,544.5 Z"/></g>
<g><path style="opacity:1" fill="#f8ee01" d="M 610.5,569.5 C 618.765,573.39 625.599,579.057 631,586.5C 633.433,592.691 633.933,599.024 632.5,605.5C 616.531,598.913 609.198,586.913 610.5,569.5 Z"/></g>
<g><path style="opacity:1" fill="#f2e801" d="M 634.5,575.5 C 637.43,576.299 640.43,576.632 643.5,576.5C 643.608,580.247 643.108,583.914 642,587.5C 639.497,590.502 637.497,593.835 636,597.5C 633.35,590.302 632.85,582.969 634.5,575.5 Z"/></g>
<g><path style="opacity:1" fill="#f4eb01" d="M 665.5,578.5 C 666.675,578.281 667.675,578.614 668.5,579.5C 663.741,596.27 652.741,605.27 635.5,606.5C 636.668,598.332 640.334,591.498 646.5,586C 652.701,582.992 659.034,580.492 665.5,578.5 Z"/></g>
<g><path style="opacity:1" fill="#fbfcfc" d="M 210.5,582.5 C 223.281,580.017 231.948,584.684 236.5,596.5C 249.088,593.711 258.254,598.045 264,609.5C 264.667,610.833 264.667,612.167 264,613.5C 257.562,620.604 251.895,628.27 247,636.5C 237.71,628.605 227.21,622.938 215.5,619.5C 214.167,628.833 214.167,638.167 215.5,647.5C 206.505,647.107 197.672,648.107 189,650.5C 188.055,650.095 187.388,649.428 187,648.5C 182.779,634.41 187.279,624.243 200.5,618C 191.963,602.782 195.296,590.949 210.5,582.5 Z"/></g>
<g><path style="opacity:1" fill="#181b1e" d="M 275.5,595.5 C 276.251,594.427 277.251,594.26 278.5,595C 286.48,598.966 294.48,602.966 302.5,607C 311.993,609.107 321.326,608.441 330.5,605C 344.971,599.132 359.971,595.632 375.5,594.5C 388.232,595.359 400.232,598.859 411.5,605C 415.406,606.434 419.406,606.767 423.5,606C 432.62,601.773 441.953,598.106 451.5,595C 458.167,594.333 464.833,594.333 471.5,595C 484.338,598.057 497.005,601.724 509.5,606C 516.685,608.275 524.018,608.942 531.5,608C 541.136,603.516 550.803,599.016 560.5,594.5C 560.833,594.833 561.167,595.167 561.5,595.5C 556.5,604.833 551.5,614.167 546.5,623.5C 536.342,628.189 525.675,629.689 514.5,628C 501.939,625.11 489.606,621.443 477.5,617C 469.956,614.856 462.289,614.189 454.5,615C 444.962,619.067 435.295,622.734 425.5,626C 420.5,626.667 415.5,626.667 410.5,626C 402.949,623.559 395.616,620.559 388.5,617C 377.748,613.595 367.081,613.928 356.5,618C 345.28,621.74 333.947,625.073 322.5,628C 315.833,628.667 309.167,628.667 302.5,628C 299.851,627.548 297.351,626.714 295,625.5C 288.725,615.265 282.225,605.265 275.5,595.5 Z"/></g>
<g><path style="opacity:1" fill="#fafafa" d="M 364.5,597.5 C 371.175,597.334 377.842,597.5 384.5,598C 396.031,601.844 407.531,605.677 419,609.5C 421.591,609.435 424.091,608.935 426.5,608C 434.505,603.83 442.839,600.497 451.5,598C 458.167,597.333 464.833,597.333 471.5,598C 486.902,602.135 502.236,606.468 517.5,611C 524.367,612.034 531.033,611.367 537.5,609C 542.659,606.588 547.659,603.921 552.5,601C 553.5,600.333 554.5,600.333 555.5,601C 552.127,607.58 548.627,614.08 545,620.5C 542.181,622.669 539.014,624.169 535.5,625C 528.5,625.667 521.5,625.667 514.5,625C 499.113,620.871 483.78,616.538 468.5,612C 463.833,611.333 459.167,611.333 454.5,612C 445.157,615.673 435.823,619.339 426.5,623C 421.167,623.667 415.833,623.667 410.5,623C 401.157,619.327 391.823,615.661 382.5,612C 375.018,611.058 367.685,611.725 360.5,614C 349.454,617.178 338.454,620.512 327.5,624C 317.827,625.964 308.161,625.964 298.5,624C 292.137,616.406 286.97,608.239 283,599.5C 291.66,605.582 301.16,609.582 311.5,611.5C 329.583,608.021 347.249,603.355 364.5,597.5 Z"/></g>
<g><path style="opacity:1" fill="#f5eb02" d="M 603.5,597.5 C 610.126,602.292 615.96,607.959 621,614.5C 623.718,622.009 624.218,629.675 622.5,637.5C 613.946,634.781 608.112,629.114 605,620.5C 602.413,612.952 601.913,605.286 603.5,597.5 Z"/></g>
<g><path style="opacity:1" fill="#efe602" d="M 629.5,606.5 C 632.43,607.299 635.43,607.632 638.5,607.5C 637.803,611.956 636.636,616.29 635,620.5C 631.551,623.374 628.551,626.707 626,630.5C 624.923,622.15 626.09,614.15 629.5,606.5 Z"/></g>
<g><path style="opacity:1" fill="#f7ed01" d="M 659.5,615.5 C 661.355,615.272 662.188,615.939 662,617.5C 654.407,633.213 641.907,640.546 624.5,639.5C 627.17,628.661 633.837,621.495 644.5,618C 649.681,617.4 654.681,616.566 659.5,615.5 Z"/></g>
<g><path style="opacity:1" fill="#00903e" d="M 266.5,616.5 C 271.267,635.407 270.1,654.074 263,672.5C 254.119,674.718 247.619,679.885 243.5,688C 229.22,687.866 216.553,683.199 205.5,674C 198.948,667.951 192.948,661.451 187.5,654.5C 191.427,653.345 195.427,652.512 199.5,652C 206.524,651.831 213.524,651.331 220.5,650.5C 218.705,641.951 218.038,633.284 218.5,624.5C 222.362,625.428 226.029,626.928 229.5,629C 235.77,633.049 241.937,637.215 248,641.5C 251.488,637.202 254.488,632.536 257,627.5C 260.002,623.666 263.169,620 266.5,616.5 Z"/></g>
<g><path style="opacity:1" fill="#f7ed01" d="M 594.5,623.5 C 598.091,628.268 601.925,632.935 606,637.5C 610.071,643.616 611.405,650.283 610,657.5C 609.005,661.145 608.172,664.812 607.5,668.5C 601.216,665.714 596.716,661.047 594,654.5C 590.596,644.083 590.762,633.749 594.5,623.5 Z"/></g>
<g><path style="opacity:1" fill="#16191d" d="M 373.5,637.5 C 377.846,637.334 382.179,637.501 386.5,638C 395.816,640.823 404.816,644.489 413.5,649C 417.905,649.696 422.239,649.363 426.5,648C 435.969,642.289 446.136,638.789 457,637.5C 460.57,637.544 464.07,638.044 467.5,639C 477.844,642.67 488.178,646.337 498.5,650C 505.591,650.491 512.591,650.157 519.5,649C 516.205,655.758 513.038,662.591 510,669.5C 504.31,671.931 498.477,672.098 492.5,670C 481.265,665.548 469.932,661.382 458.5,657.5C 455.821,657.936 453.155,658.436 450.5,659C 443.833,662 437.167,665 430.5,668C 422.495,671.332 414.495,671.332 406.5,668C 399.616,664.725 392.616,661.725 385.5,659C 381.167,658.333 376.833,658.333 372.5,659C 360.796,665.068 348.463,669.234 335.5,671.5C 333.833,671.167 332.167,670.833 330.5,670.5C 326.5,663.5 322.5,656.5 318.5,649.5C 321.497,648.524 324.497,648.69 327.5,650C 332.5,650.667 337.5,650.667 342.5,650C 352.922,645.78 363.255,641.613 373.5,637.5 Z"/></g>
<g><path style="opacity:1" fill="#f9f9f9" d="M 373.5,640.5 C 386.902,640.102 399.236,643.602 410.5,651C 415.818,652.929 421.151,652.929 426.5,651C 433.167,648 439.833,645 446.5,642C 452.097,640.544 457.763,640.211 463.5,641C 473.126,643.542 482.459,646.875 491.5,651C 498.565,653.37 505.732,653.87 513,652.5C 513.5,652.833 514,653.167 514.5,653.5C 512.167,658.167 509.833,662.833 507.5,667.5C 503.878,668.659 500.211,668.825 496.5,668C 485.293,664.597 474.293,660.597 463.5,656C 458.428,655.249 453.428,655.582 448.5,657C 443.38,659.06 438.38,661.393 433.5,664C 424.658,668.25 415.658,668.584 406.5,665C 397.924,659.954 388.758,656.788 379,655.5C 376.833,655.667 374.667,655.833 372.5,656C 361.073,661.864 349.073,666.031 336.5,668.5C 334.9,668.449 333.4,668.116 332,667.5C 328.941,662.715 326.441,657.715 324.5,652.5C 330.472,653.474 336.472,653.641 342.5,653C 353.144,649.293 363.478,645.126 373.5,640.5 Z"/></g>
<g><path style="opacity:1" fill="#f4ea01" d="M 618.5,639.5 C 621.579,641.02 624.912,641.853 628.5,642C 627.004,645.149 625.504,648.316 624,651.5C 619.815,654.595 615.815,657.928 612,661.5C 611.886,658.167 612.219,654.834 613,651.5C 615.121,647.593 616.955,643.593 618.5,639.5 Z"/></g>
<g><path style="opacity:1" fill="#f8ee01" d="M 627.5,652.5 C 635.84,652.334 644.173,652.5 652.5,653C 645.739,662.545 636.739,668.878 625.5,672C 619.558,673.035 613.892,672.368 608.5,670C 613.125,662.204 619.459,656.37 627.5,652.5 Z"/></g>
<g><path style="opacity:1" fill="#f5ec01" d="M 579.5,651.5 C 585.533,659.738 589.533,668.905 591.5,679C 590.628,686.951 587.795,694.117 583,700.5C 573.266,689.304 570.6,676.638 575,662.5C 576.513,658.812 578.013,655.145 579.5,651.5 Z"/></g>
<g><path style="opacity:1" fill="#f1e801" d="M 602.5,669.5 C 605.454,671.314 608.454,672.98 611.5,674.5C 609.081,679.085 606.081,683.252 602.5,687C 597.919,688.871 593.752,691.371 590,694.5C 590.59,691.931 591.257,689.265 592,686.5C 595.752,680.931 599.252,675.264 602.5,669.5 Z"/></g>
<g><path style="opacity:1" fill="#f7ed01" d="M 560.5,674.5 C 561.117,674.611 561.617,674.944 562,675.5C 564.797,683.55 566.964,691.716 568.5,700C 567.947,709.997 564.114,718.497 557,725.5C 549.592,715.552 547.592,704.552 551,692.5C 553.586,686.111 556.753,680.111 560.5,674.5 Z"/></g>
<g><path style="opacity:1" fill="#fbfbfb" d="M 289.5,676.5 C 298.36,674.742 305.86,677.076 312,683.5C 311.245,687.458 310.245,691.458 309,695.5C 308.501,701.491 308.334,707.491 308.5,713.5C 297.017,711.736 285.517,711.402 274,712.5C 273.5,712.833 273,713.167 272.5,713.5C 275.044,722.42 279.044,730.586 284.5,738C 276.054,742.639 268.221,748.139 261,754.5C 249.775,744.189 248.608,732.856 257.5,720.5C 242.491,709.26 240.824,696.426 252.5,682C 261.897,675.947 271.23,676.114 280.5,682.5C 283.541,680.441 286.541,678.441 289.5,676.5 Z"/></g>
<g><path style="opacity:1" fill="#00903e" d="M 315.5,686.5 C 332.564,705.53 339.731,727.864 337,753.5C 336.727,755.329 335.893,756.829 334.5,758C 310.572,770.612 286.572,770.612 262.5,758C 270.986,750.833 279.986,744.5 289.5,739C 283.785,732.071 279.785,724.238 277.5,715.5C 288.887,715.362 300.22,716.029 311.5,717.5C 310.808,706.852 312.141,696.519 315.5,686.5 Z"/></g>
<g><path style="opacity:1" fill="#f7ed01" d="M 603.5,688.5 C 613.51,687.869 623.177,689.369 632.5,693C 618.809,707.394 603.143,710.394 585.5,702C 590.709,696.251 596.709,691.751 603.5,688.5 Z"/></g>
<g><path style="opacity:1" fill="#f8ee01" d="M 535.5,693.5 C 540.176,703.568 542.009,714.235 541,725.5C 538.451,733.597 534.118,740.597 528,746.5C 519.119,731.693 519.453,717.026 529,702.5C 531.385,699.621 533.552,696.621 535.5,693.5 Z"/></g>
<g><path style="opacity:1" fill="#f4ea01" d="M 579.5,700.5 C 581.757,702.923 584.424,704.757 587.5,706C 584.833,708.667 582.167,711.333 579.5,714C 574.021,716.043 568.688,718.043 563.5,720C 565.43,717.742 566.93,715.242 568,712.5C 572.037,708.631 575.87,704.631 579.5,700.5 Z"/></g>
<g><path style="opacity:1" fill="#f8ee01" d="M 578.5,716.5 C 581.518,716.335 584.518,716.502 587.5,717C 594.843,719.673 602.177,722.34 609.5,725C 597.698,734.823 584.364,737.823 569.5,734C 565.504,732.337 561.837,730.171 558.5,727.5C 564.372,722.234 571.039,718.567 578.5,716.5 Z"/></g>
<g><path style="opacity:1" fill="#efe601" d="M 552.5,724.5 C 554.6,726.498 556.6,728.665 558.5,731C 551.582,736.174 543.915,739.507 535.5,741C 537.743,738.512 539.743,735.846 541.5,733C 545.597,730.63 549.264,727.797 552.5,724.5 Z"/></g>
<g><path style="opacity:1" fill="#f9f9f9" d="M 439.5,733.5 C 459.891,734.053 469.725,744.386 469,764.5C 466.331,771.502 461.831,777.002 455.5,781C 451.439,783.359 447.439,785.692 443.5,788C 443.645,788.772 443.978,789.439 444.5,790C 453.616,793.802 461.116,799.635 467,807.5C 472.349,822.635 467.849,833.802 453.5,841C 443.813,844.255 435.146,842.588 427.5,836C 423.588,831.923 420.255,827.423 417.5,822.5C 413.801,830.37 408.135,836.537 400.5,841C 385.896,844.282 375.396,839.115 369,825.5C 365.905,816.189 367.571,807.856 374,800.5C 378.105,795.557 382.938,791.557 388.5,788.5C 379.753,783.586 373.253,776.586 369,767.5C 365.596,751.86 371.429,741.027 386.5,735C 395.29,732.932 402.79,735.099 409,741.5C 412.03,745.698 414.863,750.032 417.5,754.5C 422.298,744.699 429.631,737.699 439.5,733.5 Z"/></g>
<g><path style="opacity:1" fill="#f9ef01" d="M 545.5,739.5 C 551.577,739.196 557.577,739.696 563.5,741C 569.838,743.836 576.172,746.669 582.5,749.5C 567.953,759.584 552.619,761.084 536.5,754C 533.999,752.327 531.666,750.493 529.5,748.5C 534.604,744.952 539.937,741.952 545.5,739.5 Z"/></g>
<g><path style="opacity:1" fill="#008c3d" d="M 341.5,743.5 C 348.541,749.11 356.041,754.11 364,758.5C 365.507,764.015 367.174,769.348 369,774.5C 358.274,770.315 347.774,765.648 337.5,760.5C 338.727,759.41 339.56,758.076 340,756.5C 340.735,752.187 341.235,747.853 341.5,743.5 Z"/></g>
<g><path style="opacity:1" fill="#f6ec00" d="M 523.5,744.5 C 525.745,747.32 527.745,750.32 529.5,753.5C 506.013,765.582 481.679,775.415 456.5,783C 462.93,778.571 467.93,772.905 471.5,766C 489.426,760.202 506.759,753.035 523.5,744.5 Z"/></g>
<g><path style="opacity:1" fill="#191d1b" d="M 403.5,747.5 C 407.973,750.472 411.14,754.472 413,759.5C 413.165,767.521 412.665,775.521 411.5,783.5C 404.976,781.84 398.309,781.007 391.5,781C 386.33,779.245 381.996,776.245 378.5,772C 381.792,769.689 385.458,768.523 389.5,768.5C 388.736,763.794 388.236,759.127 388,754.5C 392.407,755.815 396.907,756.815 401.5,757.5C 401.54,754.012 402.207,750.679 403.5,747.5 Z"/></g>
<g><path style="opacity:1" fill="#008d3d" d="M 404.5,751.5 C 407.231,753.071 409.065,755.405 410,758.5C 410.333,765.505 410.167,772.505 409.5,779.5C 399.469,781.161 390.469,778.994 382.5,773C 385.447,770.836 388.781,770.002 392.5,770.5C 391.207,766.616 390.541,762.616 390.5,758.5C 394.839,757.846 398.673,758.846 402,761.5C 403.362,758.353 404.195,755.02 404.5,751.5 Z"/></g>
<g><path style="opacity:1" fill="#161c19" d="M 432.5,747.5 C 434.124,750.606 435.457,753.939 436.5,757.5C 440.356,755.997 444.356,755.33 448.5,755.5C 448.533,759.869 448.2,764.202 447.5,768.5C 451.325,769.074 454.991,770.241 458.5,772C 454.501,776.665 449.501,779.665 443.5,781C 437.143,781.346 430.81,781.846 424.5,782.5C 424.331,774.479 424.165,766.479 424,758.5C 425.898,754.002 428.731,750.336 432.5,747.5 Z"/></g>
<g><path style="opacity:1" fill="#008e3d" d="M 430.5,752.5 C 431.376,752.369 432.043,752.702 432.5,753.5C 433.018,756.316 433.851,758.982 435,761.5C 438.383,758.513 442.217,757.846 446.5,759.5C 445.974,762.843 444.974,766.01 443.5,769C 446.984,769.917 450.317,771.25 453.5,773C 450.571,776.299 446.904,778.299 442.5,779C 437.511,779.499 432.511,779.666 427.5,779.5C 426.645,772.181 426.479,764.848 427,757.5C 427.997,755.677 429.164,754.01 430.5,752.5 Z"/></g>
<g><path style="opacity:1" fill="#f4ea01" d="M 375.5,791.5 C 376.873,791.343 378.207,791.51 379.5,792C 373.604,796.551 369.271,802.218 366.5,809C 360.622,810.605 354.956,812.772 349.5,815.5C 347.927,808.583 346.927,801.583 346.5,794.5C 355.199,794.581 363.865,794.081 372.5,793C 373.737,792.768 374.737,792.268 375.5,791.5 Z"/></g>
<g><path style="opacity:1" fill="#191d1b" d="M 410.5,793.5 C 411.805,795.397 412.471,797.731 412.5,800.5C 416.148,812.175 413.315,821.842 404,829.5C 402.85,826.232 402.016,822.899 401.5,819.5C 396.839,819.902 392.339,820.902 388,822.5C 387.794,818.107 388.294,813.773 389.5,809.5C 385.684,808.286 382.018,806.786 378.5,805C 386.203,796.32 395.87,792.987 407.5,795C 408.737,794.768 409.737,794.268 410.5,793.5 Z"/></g>
<g><path style="opacity:1" fill="#181e1b" d="M 424.5,794.5 C 432.205,795.002 439.872,795.836 447.5,797C 451.698,798.933 455.365,801.599 458.5,805C 454.828,806.503 451.162,808.003 447.5,809.5C 448.884,813.822 449.217,818.155 448.5,822.5C 444.411,821.868 440.411,820.868 436.5,819.5C 434.84,822.647 433.673,825.98 433,829.5C 427.147,825.803 423.98,820.469 423.5,813.5C 424.321,807.192 424.654,800.859 424.5,794.5 Z"/></g>
<g><path style="opacity:1" fill="#008c3c" d="M 455.5,793.5 C 455.56,792.957 455.893,792.624 456.5,792.5C 472.173,797.467 488.173,799.134 504.5,797.5C 503.808,803.177 502.975,808.844 502,814.5C 490.474,809.546 478.641,805.38 466.5,802C 462.957,798.951 459.291,796.118 455.5,793.5 Z"/></g>
<g><path style="opacity:1" fill="#008d3d" d="M 394.5,797.5 C 399.5,797.5 404.5,797.5 409.5,797.5C 409.88,801.823 410.214,806.156 410.5,810.5C 411.128,816.453 409.295,821.453 405,825.5C 404.371,821.994 403.371,818.66 402,815.5C 398.673,818.154 394.839,819.154 390.5,818.5C 390.333,814.33 391,810.33 392.5,806.5C 381.112,806.706 380.112,804.206 389.5,799C 391.382,798.802 393.048,798.302 394.5,797.5 Z"/></g>
<g><path style="opacity:1" fill="#008e3d" d="M 427.5,797.5 C 433.565,797.261 439.565,797.761 445.5,799C 448.807,799.653 451.473,801.319 453.5,804C 450.317,805.75 446.984,807.083 443.5,808C 445.931,811.078 446.931,814.578 446.5,818.5C 442.04,819.115 438.04,818.115 434.5,815.5C 433.815,818.627 432.815,821.627 431.5,824.5C 427.202,821.056 425.535,816.556 426.5,811C 426.767,806.488 427.101,801.988 427.5,797.5 Z"/></g>
</svg>
